<svg xmlns="http://www.w3.org/2000/svg" xmlns:xlink="http://www.w3.org/1999/xlink" fill="none" version="1.1" width="22.60714340209961" height="24" viewBox="0 0 22.60714340209961 24"><g transform="matrix(1,0,0,-1,0,48)"><path d="M22.5536,40.1719Q22.7411,39.5156,22.2723,39.0469L20.2098,37.1719Q20.3036,36.6094,20.3036,36Q20.3036,35.3906,20.2098,34.8281L22.2723,32.95312Q22.7411,32.48438,22.5536,31.82812Q22.2254,30.98438,21.8036,30.1875L21.5692,29.8125Q21.1004,29.0625,20.5379,28.35938Q20.0692,27.84375,19.4129,28.03125L16.7879,28.875Q15.8504,28.125,14.7254,27.70312L14.1629,24.984375Q13.9754,24.328125,13.2723,24.1875Q12.3348,24,11.3036,24Q10.2723,24,9.28795,24.1875Q8.6317,24.328125,8.4442,24.984375L7.8817,27.70312Q6.7567,28.125,5.8192,28.875L3.1942,28.03125Q2.53795,27.84375,2.0692,28.35938Q1.45982,29.0625,1.03795,29.8125L0.803571,30.1875Q0.381696,30.98438,0.0535715,31.78125Q-0.133929,32.48438,0.334821,32.95312L2.39732,34.7812Q2.30357,35.3906,2.30357,36Q2.30357,36.6094,2.39732,37.1719L0.334821,39.0469Q-0.133929,39.5156,0.0535715,40.1719Q0.381696,41.0156,0.803571,41.8125L1.03795,42.1875Q1.45982,42.9375,2.0692,43.6406Q2.53795,44.1562,3.1942,43.9688L5.8192,43.125Q6.7567,43.875,7.8817,44.3438L8.4442,47.0156Q8.6317,47.6719,9.33482,47.8125Q10.2723,48,11.3036,48Q12.3348,48,13.3192,47.8125Q13.9754,47.6719,14.1629,47.0156L14.7254,44.3438Q15.8504,43.875,16.7879,43.125L19.4129,43.9688Q20.0692,44.1562,20.5379,43.6406Q21.1473,42.9375,21.6161,42.1875L21.8036,41.8125Q22.2254,41.0156,22.5536,40.1719ZM11.3036,32.25Q13.4129,32.29688,14.5379,34.125Q15.5692,36,14.5379,37.875Q13.4129,39.7031,11.3036,39.75Q9.1942,39.7031,8.0692,37.875Q7.03795,36,8.0692,34.125Q9.1942,32.29688,11.3036,32.25Z" fill="#374151" fill-opacity="1" style="mix-blend-mode:passthrough"/></g></svg>